# xmcd
#
# Track frame offsets: 
#        150
#        11059
#        20144
#        30115
#        43505
#        50809
#        60914
#        70914
#        84423
#        97456
#        107545
#        118790
#
# Disc length: 1704 seconds
#
# Revision: 0
# Processed by: cddbd v1.5.2PL0 Copyright (c) Steve Scherf et al.
# Submitted via: ExactAudioCopy v0.95b3
#
DISCID=9b06a60c
DTITLE=Dave Clark Five  - American Tour  FLAC
DYEAR=1900
DGENRE=
TTITLE0=Because
TTITLE1=Who's He Think He Is
TTITLE2=Move On
TTITLE3=Whenever You're Around
TTITLE4=I Want You Still
TTITLE5=Long Ago
TTITLE6=Come On Over
TTITLE7=Blue Monday
TTITLE8=Sometimes
TTITLE9=Anytime You Want Love
TTITLE10=I Cried Over You
TTITLE11=Ol' Sol
EXTD=
EXTT0=
EXTT1=
EXTT2=
EXTT3=
EXTT4=
EXTT5=
EXTT6=
EXTT7=
EXTT8=
EXTT9=
EXTT10=
EXTT11=
PLAYORDER=
